<svg xmlns="http://www.w3.org/2000/svg" width="32" height="32" class="icon" p-id="29668" t="1581932721716" version="1.1" viewBox="0 0 1024 1024"><path fill="#FFC177" d="M864 0H160a128.384 128.384 0 0 0-128 128v768a128.384 128.384 0 0 0 128 128h545.792L992 739.488V128a128.384 128.384 0 0 0-128-128z m-288 736H224a32 32 0 0 1 0-64h352a32 32 0 0 1 0 64z m224-224H224a32 32 0 0 1 0-64h576a32 32 0 0 1 0 64z m0-224H224a32 32 0 0 1 0-64h576a32 32 0 0 1 0 64z" p-id="29669"/><path fill="#FFD4A6" d="M704 1024v-288h288z" p-id="29670"/></svg>