<svg xmlns="http://www.w3.org/2000/svg" width="64" height="64" class="icon" p-id="8443" t="1589961892732" version="1.1" viewBox="0 0 1024 1024"><path fill="#C4DFFB" d="M32 206.784V74.4C32 33.472 62.944 0 100.736 0h278.4c37.792 0 92.8 22.304 120.288 48.352l-10.304-11.168c30.944 26.048 85.92 48.352 123.744 48.352h278.4C929.056 85.568 960 119.04 960 159.936v46.816" p-id="8444"/><path fill="#6bcbff" d="M75.072 192h873.856C990.208 192 1024 225.472 1024 266.4v615.936c0 40.928-33.792 74.4-75.072 74.4H75.072C33.792 956.704 0 923.232 0 882.336V266.4C0 225.472 33.792 192 75.072 192z" p-id="8445"/><path fill="#FFF" d="M504 584H352v-48h152V384h48v152H704v48h-152V736h-48v-152z" p-id="8446"/></svg>