<svg xmlns="http://www.w3.org/2000/svg" width="32" height="32" class="icon" p-id="848" t="1584183590713" version="1.1" viewBox="0 0 1024 1024"><path d="M384 128h-170.666667a85.333333 85.333333 0 0 0-85.333333 85.333333v170.666667a85.333333 85.333333 0 0 0 85.333333 85.333333h170.666667a85.333333 85.333333 0 0 0 85.333333-85.333333v-170.666667a85.333333 85.333333 0 0 0-85.333333-85.333333z m-170.666667 256v-170.666667h170.666667v170.666667z" p-id="849"/><path d="M810.666667 128h-170.666667a85.333333 85.333333 0 0 0-85.333333 85.333333v170.666667a85.333333 85.333333 0 0 0 85.333333 85.333333h170.666667a85.333333 85.333333 0 0 0 85.333333-85.333333v-170.666667a85.333333 85.333333 0 0 0-85.333333-85.333333z m-170.666667 256v-170.666667h170.666667v170.666667z" p-id="850"/><path d="M384 554.666667h-170.666667a85.333333 85.333333 0 0 0-85.333333 85.333333v170.666667a85.333333 85.333333 0 0 0 85.333333 85.333333h170.666667a85.333333 85.333333 0 0 0 85.333333-85.333333v-170.666667a85.333333 85.333333 0 0 0-85.333333-85.333333z m-170.666667 256v-170.666667h170.666667v170.666667z" p-id="851"/><path d="M810.666667 554.666667h-170.666667a85.333333 85.333333 0 0 0-85.333333 85.333333v170.666667a85.333333 85.333333 0 0 0 85.333333 85.333333h170.666667a85.333333 85.333333 0 0 0 85.333333-85.333333v-170.666667a85.333333 85.333333 0 0 0-85.333333-85.333333z m-170.666667 256v-170.666667h170.666667v170.666667z" p-id="852"/></svg>