<svg xmlns="http://www.w3.org/2000/svg" width="32" height="32" class="icon" p-id="34484" t="1580292196629" version="1.1" viewBox="0 0 1024 1024"><path fill="#20C997" d="M114 226m19.96 0l184.08 0q19.96 0 19.96 19.96l0 660.08q0 19.96-19.96 19.96l-184.08 0q-19.96 0-19.96-19.96l0-660.08q0-19.96 19.96-19.96Z" p-id="34485"/><path fill="#0CA678" d="M159.24 354.6a66.84 66.76 90 1 0 133.52 0 66.84 66.76 90 1 0-133.52 0Z" p-id="34486"/><path fill="#0CA678" d="M159.24 790.88m13.64 0l106.26 0q13.64 0 13.64 13.64l0 0.04q0 13.64-13.64 13.64l-106.26 0q-13.64 0-13.64-13.64l0-0.04q0-13.64 13.64-13.64Z" p-id="34487"/><path fill="#0CA678" d="M159.24 844.78m13.64 0l106.26 0q13.64 0 13.64 13.64l0 0.04q0 13.64-13.64 13.64l-106.26 0q-13.64 0-13.64-13.64l0-0.04q0-13.64 13.64-13.64Z" p-id="34488"/><path fill="#FF6B6B" d="M402 118m19.96 0l184.08 0q19.96 0 19.96 19.96l0 660.08q0 19.96-19.96 19.96l-184.08 0q-19.96 0-19.96-19.96l0-660.08q0-19.96 19.96-19.96Z" p-id="34489"/><path fill="#FA5252" d="M447.24 246.6a66.84 66.76 90 1 0 133.52 0 66.84 66.76 90 1 0-133.52 0Z" p-id="34490"/><path fill="#FA5252" d="M447.24 682.88m13.64 0l106.26 0q13.64 0 13.64 13.64l0 0.04q0 13.64-13.64 13.64l-106.26 0q-13.64 0-13.64-13.64l0-0.04q0-13.64 13.64-13.64Z" p-id="34491"/><path fill="#FA5252" d="M447.24 736.78m13.64 0l106.26 0q13.64 0 13.64 13.64l0 0.04q0 13.64-13.64 13.64l-106.26 0q-13.64 0-13.64-13.64l0-0.04q0-13.64 13.64-13.64Z" p-id="34492"/><path fill="#329AF0" d="M688 184m19.96 0l184.08 0q19.96 0 19.96 19.96l0 660.08q0 19.96-19.96 19.96l-184.08 0q-19.96 0-19.96-19.96l0-660.08q0-19.96 19.96-19.96Z" p-id="34493"/><path fill="#1C7CD6" d="M733.24 312.6a66.84 66.76 90 1 0 133.52 0 66.84 66.76 90 1 0-133.52 0Z" p-id="34494"/><path fill="#1C7CD6" d="M733.24 748.88m13.64 0l106.26 0q13.64 0 13.64 13.64l0 0.04q0 13.64-13.64 13.64l-106.26 0q-13.64 0-13.64-13.64l0-0.04q0-13.64 13.64-13.64Z" p-id="34495"/><path fill="#1C7CD6" d="M733.24 802.78m13.64 0l106.26 0q13.64 0 13.64 13.64l0 0.04q0 13.64-13.64 13.64l-106.26 0q-13.64 0-13.64-13.64l0-0.04q0-13.64 13.64-13.64Z" p-id="34496"/></svg>